<svg width="126" height="38" viewBox="0 0 126 38" fill="none" xmlns="http://www.w3.org/2000/svg">
<path d="M5.98438 20.4844L14.5312 23.3594V28.1562L0.71875 22.5312V18.375L14.5312 12.75V17.5312L5.98438 20.4844ZM36.4375 22.2969C36.3646 23.8802 35.9375 25.2812 35.1562 26.5C34.375 27.7083 33.276 28.6458 31.8594 29.3125C30.4531 29.9792 28.8438 30.3125 27.0312 30.3125C24.0417 30.3125 21.6875 29.3385 19.9688 27.3906C18.25 25.4427 17.3906 22.6927 17.3906 19.1406V18.0156C17.3906 15.7865 17.776 13.8385 18.5469 12.1719C19.3281 10.4948 20.4479 9.20312 21.9062 8.29688C23.3646 7.38021 25.0521 6.92188 26.9688 6.92188C29.7292 6.92188 31.9479 7.65104 33.625 9.10938C35.3021 10.5573 36.2552 12.5573 36.4844 15.1094H31.0156C30.974 13.724 30.625 12.7292 29.9688 12.125C29.3125 11.5208 28.3125 11.2188 26.9688 11.2188C25.6042 11.2188 24.6042 11.7292 23.9688 12.75C23.3333 13.7708 23 15.401 22.9688 17.6406V19.25C22.9688 21.6771 23.2708 23.4115 23.875 24.4531C24.4896 25.4948 25.5417 26.0156 27.0312 26.0156C28.2917 26.0156 29.2552 25.7188 29.9219 25.125C30.5885 24.5312 30.9427 23.5885 30.9844 22.2969H36.4375ZM58.2969 19.0938C58.2969 21.3125 57.8854 23.276 57.0625 24.9844C56.2396 26.6927 55.0677 28.0104 53.5469 28.9375C52.0365 29.8542 50.3125 30.3125 48.375 30.3125C46.4375 30.3125 44.7188 29.8698 43.2188 28.9844C41.7188 28.0885 40.5469 26.8125 39.7031 25.1562C38.8698 23.5 38.4323 21.599 38.3906 19.4531V18.1719C38.3906 15.9427 38.7969 13.9792 39.6094 12.2812C40.4323 10.5729 41.6042 9.25521 43.125 8.32812C44.6562 7.40104 46.3958 6.9375 48.3438 6.9375C50.2708 6.9375 51.9896 7.39583 53.5 8.3125C55.0104 9.22917 56.1823 10.5365 57.0156 12.2344C57.8594 13.9219 58.2865 15.8594 58.2969 18.0469V19.0938ZM52.7188 18.1406C52.7188 15.8802 52.3385 14.1667 51.5781 13C50.8281 11.8229 49.75 11.2344 48.3438 11.2344C45.5938 11.2344 44.1406 13.2969 43.9844 17.4219L43.9688 19.0938C43.9688 21.3229 44.3385 23.0365 45.0781 24.2344C45.8177 25.4323 46.9167 26.0312 48.375 26.0312C49.7604 26.0312 50.8281 25.4427 51.5781 24.2656C52.3281 23.0885 52.7083 21.3958 52.7188 19.1875V18.1406ZM61.125 30V7.25H68.4531C70.4635 7.25 72.2708 7.70833 73.875 8.625C75.4792 9.53125 76.7292 10.8177 77.625 12.4844C78.5312 14.1406 78.9896 16 79 18.0625V19.1094C79 21.1927 78.5573 23.0625 77.6719 24.7188C76.7969 26.3646 75.5573 27.6562 73.9531 28.5938C72.3594 29.5208 70.5781 29.9896 68.6094 30H61.125ZM66.6094 11.4844V25.7812H68.5156C70.0885 25.7812 71.2969 25.224 72.1406 24.1094C72.9844 22.9844 73.4062 21.3177 73.4062 19.1094V18.125C73.4062 15.9271 72.9844 14.2708 72.1406 13.1562C71.2969 12.0417 70.0677 11.4844 68.4531 11.4844H66.6094ZM95.9219 20.3594H87.2969V25.7812H97.4844V30H81.8125V7.25H97.5156V11.4844H87.2969V16.2812H95.9219V20.3594ZM101.281 31.9531H97.5469L105.312 7.25H109.062L101.281 31.9531ZM119.484 20.4375L110.984 17.5469V12.7656L124.719 18.3906V22.5469L110.984 28.1719V23.3906L119.484 20.4375Z" fill="#2B2D42"/>
</svg>
