<svg width="252" height="75" viewBox="0 0 252 75" fill="none" xmlns="http://www.w3.org/2000/svg">
<path d="M11.9688 39.9688L29.0625 45.7188V55.3125L1.4375 44.0625V35.75L29.0625 24.5V34.0625L11.9688 39.9688ZM72.875 43.5938C72.7292 46.7604 71.875 49.5625 70.3125 52C68.75 54.4167 66.5521 56.2917 63.7188 57.625C60.9062 58.9583 57.6875 59.625 54.0625 59.625C48.0833 59.625 43.375 57.6771 39.9375 53.7812C36.5 49.8854 34.7812 44.3854 34.7812 37.2812V35.0312C34.7812 30.5729 35.5521 26.6771 37.0938 23.3438C38.6562 19.9896 40.8958 17.4062 43.8125 15.5938C46.7292 13.7604 50.1042 12.8438 53.9375 12.8438C59.4583 12.8438 63.8958 14.3021 67.25 17.2188C70.6042 20.1146 72.5104 24.1146 72.9688 29.2188H62.0312C61.9479 26.4479 61.25 24.4583 59.9375 23.25C58.625 22.0417 56.625 21.4375 53.9375 21.4375C51.2083 21.4375 49.2083 22.4583 47.9375 24.5C46.6667 26.5417 46 29.8021 45.9375 34.2812V37.5C45.9375 42.3542 46.5417 45.8229 47.75 47.9062C48.9792 49.9896 51.0833 51.0312 54.0625 51.0312C56.5833 51.0312 58.5104 50.4375 59.8438 49.25C61.1771 48.0625 61.8854 46.1771 61.9688 43.5938H72.875ZM116.594 37.1875C116.594 41.625 115.771 45.5521 114.125 48.9688C112.479 52.3854 110.135 55.0208 107.094 56.875C104.073 58.7083 100.625 59.625 96.75 59.625C92.875 59.625 89.4375 58.7396 86.4375 56.9688C83.4375 55.1771 81.0938 52.625 79.4062 49.3125C77.7396 46 76.8646 42.1979 76.7812 37.9062V35.3438C76.7812 30.8854 77.5938 26.9583 79.2188 23.5625C80.8646 20.1458 83.2083 17.5104 86.25 15.6562C89.3125 13.8021 92.7917 12.875 96.6875 12.875C100.542 12.875 103.979 13.7917 107 15.625C110.021 17.4583 112.365 20.0729 114.031 23.4688C115.719 26.8438 116.573 30.7188 116.594 35.0938V37.1875ZM105.438 35.2812C105.438 30.7604 104.677 27.3333 103.156 25C101.656 22.6458 99.5 21.4688 96.6875 21.4688C91.1875 21.4688 88.2812 25.5938 87.9688 33.8438L87.9375 37.1875C87.9375 41.6458 88.6771 45.0729 90.1562 47.4688C91.6354 49.8646 93.8333 51.0625 96.75 51.0625C99.5208 51.0625 101.656 49.8854 103.156 47.5312C104.656 45.1771 105.417 41.7917 105.438 37.375V35.2812ZM122.25 59V13.5H136.906C140.927 13.5 144.542 14.4167 147.75 16.25C150.958 18.0625 153.458 20.6354 155.25 23.9688C157.062 27.2812 157.979 31 158 35.125V37.2188C158 41.3854 157.115 45.125 155.344 48.4375C153.594 51.7292 151.115 54.3125 147.906 56.1875C144.719 58.0417 141.156 58.9792 137.219 59H122.25ZM133.219 21.9688V50.5625H137.031C140.177 50.5625 142.594 49.4479 144.281 47.2188C145.969 44.9688 146.812 41.6354 146.812 37.2188V35.25C146.812 30.8542 145.969 27.5417 144.281 25.3125C142.594 23.0833 140.135 21.9688 136.906 21.9688H133.219ZM191.844 39.7188H174.594V50.5625H194.969V59H163.625V13.5H195.031V21.9688H174.594V31.5625H191.844V39.7188ZM202.562 62.9062H195.094L210.625 13.5H218.125L202.562 62.9062ZM238.969 39.875L221.969 34.0938V24.5312L249.438 35.7812V44.0938L221.969 55.3438V45.7812L238.969 39.875Z" fill="#FEFEFE"/>
</svg>
